<?xml version="1.0" encoding="UTF-8" standalone="no"?>
<!-- Generator: Adobe Illustrator 18.0.0, SVG Export Plug-In . SVG Version: 6.00 Build 0)  -->

<svg
   xmlns:dc="http://purl.org/dc/elements/1.1/"
   xmlns:cc="http://creativecommons.org/ns#"
   xmlns:rdf="http://www.w3.org/1999/02/22-rdf-syntax-ns#"
   xmlns:svg="http://www.w3.org/2000/svg"
   xmlns="http://www.w3.org/2000/svg"
   xmlns:sodipodi="http://sodipodi.sourceforge.net/DTD/sodipodi-0.dtd"
   xmlns:inkscape="http://www.inkscape.org/namespaces/inkscape"
   version="1.1"
   id="Layer_1"
   x="0px"
   y="0px"
   viewBox="0 0 650 650"
   enable-background="new 0 0 352.4 528"
   xml:space="preserve"
   inkscape:version="0.48.4 r9939"
   width="100%"
   height="100%"
   sodipodi:docname="logo-red-padded.svg"><metadata
     id="metadata17"><rdf:RDF><cc:Work
         rdf:about=""><dc:format>image/svg+xml</dc:format><dc:type
           rdf:resource="http://purl.org/dc/dcmitype/StillImage" /><dc:title></dc:title></cc:Work></rdf:RDF></metadata><defs
     id="defs15" /><sodipodi:namedview
     pagecolor="#ffffff"
     bordercolor="#666666"
     borderopacity="1"
     objecttolerance="10"
     gridtolerance="10"
     guidetolerance="10"
     inkscape:pageopacity="0"
     inkscape:pageshadow="2"
     inkscape:window-width="1280"
     inkscape:window-height="745"
     id="namedview13"
     showgrid="false"
     inkscape:zoom="0.4469697"
     inkscape:cx="357.42034"
     inkscape:cy="353.49152"
     inkscape:window-x="0"
     inkscape:window-y="27"
     inkscape:window-maximized="1"
     inkscape:current-layer="Layer_1" /><rect
     style="fill:#ff3539;fill-opacity:1;stroke:none"
     id="rect3801"
     width="650"
     height="650"
     x="0"
     y="0" /><g
     id="g3806"><path
       d="m 348.8,225 c 27.6,0 52.6,11.2 70.7,29.2 L 441.7,232 c -23.8,-23.7 -56.5,-38.4 -92.7,-38.4 -72.4,0 -131.3,58.9 -131.3,131.3 0,72.4 58.9,131.3 131.3,131.3 36.3,0 69.3,-14.8 93.1,-38.8 l -22.2,-22.2 c -18.2,18.5 -43.3,29.8 -71.1,29.8 -55.2,0 -100,-44.8 -100,-100 0,-55.2 44.8,-100 100,-100 z"
       id="path5"
       inkscape:connector-curvature="0"
       style="fill:#ffffff;fill-opacity:0.7" /><path
       d="m 348.7,493.3 c -93,0 -168.7,-75.7 -168.7,-168.7 0,-93 75.7,-168.6 168.7,-168.6 46.6,0 88.8,19 119.4,49.6 l 22.1,-22.1 C 454,147.4 404,125 348.8,125 c -110.5,0 -200,89.5 -200,200 0,110.5 89.5,200 200,200 55.4,0 105.6,-22.5 141.8,-58.9 l -22.4,-22.4 c -30.6,30.6 -72.9,49.6 -119.5,49.6 z"
       id="path7"
       inkscape:connector-curvature="0"
       style="fill:#ffffff;fill-opacity:0.7" /><path
       d="M 348.7,160 C 257.9,160 184,233.9 184,324.7 c 0,90.8 73.9,164.7 164.7,164.7 45.5,0 86.8,-18.6 116.6,-48.5 l -20.4,-20.4 c -24.5,24.7 -58.5,39.9 -95.9,39.9 -74.6,0 -135.3,-60.7 -135.3,-135.3 0,-74.6 60.7,-135.3 135.3,-135.3 37.2,0 71,15.1 95.5,39.5 l 20.7,-20.7 C 435.4,178.5 394.2,160 348.7,160 z"
       id="path9"
       inkscape:connector-curvature="0"
       style="fill:#ffffff;fill-opacity:0.7" /></g><polygon
     points="106.8,300 179,300 47.4,528 119.8,528 293,228 220.8,228 352.4,0 280,0 "
     id="polygon11"
     style="fill:#ffffff;"
     transform="translate(148.8,61)" /></svg>
