<svg xmlns="http://www.w3.org/2000/svg" x="0px" y="0px" viewBox="0 0 352.4 528">
<g>
	<path fill="#ccc" d="M200,164c27.6,0,52.6,11.2,70.7,29.2l22.2-22.2c-23.8-23.7-56.5-38.4-92.7-38.4
		c-72.4,0-131.3,58.9-131.3,131.3c0,72.4,58.9,131.3,131.3,131.3c36.3,0,69.3-14.8,93.1-38.8l-22.2-22.2
		C252.9,352.7,227.8,364,200,364c-55.2,0-100-44.8-100-100C100,208.8,144.8,164,200,164z"/>
	<path fill="#ccc" d="M199.9,432.3c-93,0-168.7-75.7-168.7-168.7S106.9,95,199.9,95c46.6,0,88.8,19,119.4,49.6l22.1-22.1
		C305.2,86.4,255.2,64,200,64C89.5,64,0,153.5,0,264s89.5,200,200,200c55.4,0,105.6-22.5,141.8-58.9l-22.4-22.4
		C288.8,413.3,246.5,432.3,199.9,432.3z"/>
	<path fill="#ccc" d="M199.9,99c-90.8,0-164.7,73.9-164.7,164.7c0,90.8,73.9,164.7,164.7,164.7c45.5,0,86.8-18.6,116.6-48.5
		l-20.4-20.4c-24.5,24.7-58.5,39.9-95.9,39.9c-74.6,0-135.3-60.7-135.3-135.3s60.7-135.3,135.3-135.3c37.2,0,71,15.1,95.5,39.5
		l20.7-20.7C286.6,117.5,245.4,99,199.9,99z"/>
</g>
<polygon fill="#FF3539" points="352.4,0 280,0 106.8,300 179,300 47.4,528 119.8,528 293,228 220.8,228 "/>
</svg>
