<?xml version="1.0" encoding="UTF-8" standalone="no"?>
<!-- Created with Inkscape (http://www.inkscape.org/) -->

<svg
   xmlns:dc="http://purl.org/dc/elements/1.1/"
   xmlns:cc="http://creativecommons.org/ns#"
   xmlns:rdf="http://www.w3.org/1999/02/22-rdf-syntax-ns#"
   xmlns:svg="http://www.w3.org/2000/svg"
   xmlns="http://www.w3.org/2000/svg"
   version="1.1"
   width="100"
   height="100"
   id="svg3040">
  <defs
     id="defs3042">
    <clipPath
       id="clipPath4637">
      <path
         d="m 0,1024 1024,0 L 1024,0 0,0 0,1024 z"
         id="path4639" />
    </clipPath>
  </defs>
  <metadata
     id="metadata3045">
    <rdf:RDF>
      <cc:Work
         rdf:about="">
        <dc:format>image/svg+xml</dc:format>
        <dc:type
           rdf:resource="http://purl.org/dc/dcmitype/StillImage" />
        <dc:title></dc:title>
      </cc:Work>
    </rdf:RDF>
  </metadata>
  <path
     d="m 72.806832,59.9257 c -1.238621,-0.619715 -7.327786,-3.615164 -8.463144,-4.028352 -1.135222,-0.413054 -1.960925,-0.619716 -2.786627,0.61985 -0.825567,1.239431 -3.19914,4.028352 -3.921714,4.854594 -0.722304,0.826378 -1.444878,0.929776 -2.683363,0.309926 -1.238486,-0.619716 -5.229313,-1.927179 -9.959991,-6.145455 -3.681711,-3.282831 -6.167592,-7.337775 -6.890031,-8.577206 -0.722439,-1.239565 -0.07681,-1.909765 0.543179,-2.526916 0.557083,-0.554787 1.238486,-1.446092 1.857796,-2.169206 0.619176,-0.722979 0.825568,-1.239431 1.238351,-2.065673 0.412919,-0.826377 0.206527,-1.549491 -0.103128,-2.169206 -0.309655,-0.619715 -2.786492,-6.714011 -3.818721,-9.193007 -1.005232,-2.414339 -2.026392,-2.087675 -2.786627,-2.125471 -0.721629,-0.03591 -1.548141,-0.0436 -2.373708,-0.0436 -0.825702,0 -2.167451,0.309925 -3.302809,1.549356 -1.135222,1.239565 -4.334633,4.235014 -4.334633,10.329174 0,6.09416 4.437896,11.981658 5.057207,12.808035 0.619175,0.826378 8.733383,13.332587 21.157657,18.695669 2.954953,1.275607 5.262114,2.037326 7.060652,2.608312 2.967101,0.942059 5.667068,0.809234 7.801178,0.4904 2.379513,-0.355415 7.327651,-2.995313 8.359745,-5.887498 1.032094,-2.892185 1.032094,-5.371182 0.722439,-5.887634 C 74.87102,60.855476 74.045318,60.54555 72.806832,59.9257 m -22.598485,30.846058 -0.01687,0 c -7.39258,-0.003 -14.64356,-1.988191 -20.968949,-5.740904 L 27.717987,84.138199 12.12508,88.227294 16.287202,73.029082 15.307482,71.470953 C 11.183422,64.913389 9.0051722,57.334261 9.0084119,49.552251 9.0174558,26.843753 27.499444,8.3690541 50.22468,8.3690541 61.228778,8.3732386 71.573071,12.662922 79.351571,20.447767 87.130072,28.232612 91.411386,38.580549 91.407202,49.585457 91.397888,72.29571 72.91617,90.771758 50.208347,90.771758 M 85.271736,14.532191 C 75.913373,5.1659991 63.467637,0.00525904 50.207807,-5.36952e-6 22.886472,-5.36952e-6 0.65028617,22.227677 0.6393524,49.549146 0.63570781,58.28253 2.9183013,66.807632 7.2557688,74.321967 L 0.22373411,99.999996 26.500691,93.109426 c 7.239776,3.947496 15.39124,6.027882 23.687408,6.031392 l 0.02025,0 1.35e-4,0 c 27.3185,0 49.55671,-22.230652 49.567779,-49.552121 0.0051,-13.240392 -5.145892,-25.690313 -14.504525,-35.056506"
     id="path4643"
     style="fill:#b3b3b3;fill-opacity:1;fill-rule:evenodd;stroke:none" />
</svg>
