<?xml version="1.0" encoding="UTF-8" standalone="no"?>
<!-- Created with Inkscape (http://www.inkscape.org/) -->

<svg
   xmlns:dc="http://purl.org/dc/elements/1.1/"
   xmlns:cc="http://creativecommons.org/ns#"
   xmlns:rdf="http://www.w3.org/1999/02/22-rdf-syntax-ns#"
   xmlns:svg="http://www.w3.org/2000/svg"
   xmlns="http://www.w3.org/2000/svg"
   version="1.1"
   width="817.3244"
   height="203.07692"
   viewBox="0 0 817.3244 203.07691"
   id="svg2">
  <metadata
     id="metadata35">
    <rdf:RDF>
      <cc:Work
         rdf:about="">
        <dc:format>image/svg+xml</dc:format>
        <dc:type
           rdf:resource="http://purl.org/dc/dcmitype/StillImage" />
        <dc:title></dc:title>
      </cc:Work>
    </rdf:RDF>
  </metadata>
  <defs
     id="defs33" />
  <g
     transform="translate(17.6295,-6.8858745)"
     id="flowRoot3012"
     style="font-size:184px;font-style:normal;font-weight:normal;line-height:125%;letter-spacing:0px;word-spacing:0px;fill:#ffffff;fill-opacity:1;stroke:none;font-family:Sans">
    <path
       d="m 202.6345,65.736324 c -13.37071,1.05e-4 -20.05603,4.4161 -20.056,13.248 -3e-5,3.925421 1.65597,6.930751 4.968,9.016 3.31196,2.085414 11.03995,5.090744 23.184,9.016 12.26659,3.925406 20.85325,8.402736 25.76,13.431996 4.90658,4.90673 7.35991,12.51205 7.36,22.816 -9e-5,13.12536 -3.98676,23.06135 -11.96,29.808 -7.97341,6.74667 -18.40006,10.12 -31.28,10.12 -9.56804,0 -21.2827,-1.472 -35.144,-4.416 l -6.624,-1.288 2.576,-19.688 c 16.43731,2.20802 29.01063,3.31202 37.72,3.312 13.00261,2e-5 19.50393,-5.3973 19.504,-16.192 -7e-5,-3.92529 -1.5334,-6.99195 -4.6,-9.2 -2.94406,-2.20795 -8.89339,-4.59995 -17.848,-7.176 -14.22936,-4.04794 -24.28802,-8.83194 -30.176,-14.352 -5.76534,-5.642591 -8.64801,-13.431916 -8.648,-23.367996 -1e-5,-12.511898 3.80266,-21.834555 11.408,-27.968 7.60531,-6.133209 18.03196,-9.199873 31.28,-9.2 9.07727,1.27e-4 20.60793,1.226792 34.592,3.68 l 6.624,1.288 -2.024,20.056 c -17.29607,-1.962563 -29.50139,-2.943895 -36.616,-2.944"
       id="path3888"
       style="font-weight:bold;fill:#ffffff;-inkscape-font-specification:Titillium Web Bold" />
    <path
       d="m 333.74813,168.96032 c -13.00275,2.82134 -24.71741,4.232 -35.14401,4.232 -10.42671,0 -18.76803,-1.288 -25.024,-3.864 -6.25602,-2.57599 -11.16268,-6.68532 -14.72,-12.328 -3.55734,-5.64264 -6.01067,-12.26664 -7.36,-19.872 -1.34934,-7.60529 -2.024,-17.17328 -2.024,-28.704 0,-24.165243 3.37333,-40.97056 10.12001,-50.415996 6.8693,-9.567878 19.44262,-14.351873 37.71999,-14.352 10.54927,1.27e-4 22.75459,1.656125 36.616,4.968 l -0.736,20.24 c -12.14408,-1.839896 -22.26407,-2.759895 -30.36,-2.76 -7.97338,1.05e-4 -13.67738,1.104103 -17.11199,3.312 -3.43471,2.085432 -6.01071,6.133428 -7.72801,12.144 -1.5947,6.01075 -2.39203,16.253406 -2.392,30.727996 -3e-5,14.47471 1.65597,24.53337 4.96801,30.176 3.43462,5.52003 10.18128,8.28002 20.23999,8.28 10.18127,2e-5 20.97592,-0.85864 32.384,-2.576 l 0.55201,20.792"
       id="path3890"
       style="font-weight:bold;fill:#ffffff;-inkscape-font-specification:Titillium Web Bold" />
    <path
       d="m 360.54237,122.22432 0,48.76 -14.168,0 0,-127.327996 47.10401,0 c 13.49325,1.27e-4 23.61324,3.128124 30.35999,9.384 6.86924,6.256111 10.3039,16.008102 10.30401,29.256 -1.1e-4,19.626736 -7.78943,31.954726 -23.368,36.983996 l 24.47199,51.704 -15.63999,0 -23,-48.76 -36.06401,0 m 33.12,-12.512 c 17.29592,6e-5 25.94392,-8.89326 25.94401,-26.679996 -9e-5,-17.909228 -8.70942,-26.863886 -26.128,-26.864 l -32.93601,0 0,53.543996 33.12,0"
       id="path3892"
       style="font-variant:normal;font-stretch:normal;letter-spacing:-10px;fill:#ffffff;font-family:Titillium Web;-inkscape-font-specification:Titillium Web" />
    <path
       d="m 512.1375,106.76832 0,47.104 c 0.36792,4.53868 3.92525,7.23735 10.672,8.096 l -0.552,10.856 c -9.69075,0 -16.9894,-2.45333 -21.896,-7.36 -11.04006,4.90667 -22.08004,7.36 -33.12,7.36 -8.46402,0 -14.90402,-2.392 -19.32,-7.176 -4.41601,-4.78399 -6.62401,-11.65331 -6.624,-20.608 -1e-5,-8.95463 2.26932,-15.51729 6.808,-19.688 4.53865,-4.29328 11.65331,-6.93061 21.344,-7.912 l 28.888,-2.76 0,-7.912 c -6e-5,-6.25593 -1.3494,-10.733255 -4.048,-13.431996 -2.69872,-2.698587 -6.37872,-4.047919 -11.04,-4.048 -9.81337,8.1e-5 -19.9947,0.613414 -30.544,1.84 l -5.704,0.552 -0.552,-10.488 c 13.49331,-2.698575 25.4533,-4.047907 35.88,-4.048 10.42661,9.3e-5 17.9706,2.392091 22.632,7.176 4.78392,4.784082 7.17592,12.266741 7.176,22.447996 m -56.672,37.536 c -2e-5,11.28535 4.66131,16.92801 13.984,16.928 8.34129,1e-5 16.55995,-1.41065 24.656,-4.232 l 4.232,-1.472 0,-30.36 -27.232,2.576 c -5.52003,0.49071 -9.50669,2.08538 -11.96,4.784 -2.45336,2.69871 -3.68002,6.62404 -3.68,11.776"
       id="path3894"
       style="font-variant:normal;font-stretch:normal;letter-spacing:-10px;fill:#ffffff;font-family:Titillium Web;-inkscape-font-specification:Titillium Web" />
    <path
       d="m 563.95287,77.144324 c 4.04795,9.3e-5 10.91728,0.736093 20.608,2.208 l 4.41601,0.552 -0.552,11.224 c -9.8134,-1.103919 -17.05073,-1.655919 -21.712,-1.656 -10.42671,8.1e-5 -17.54137,2.514745 -21.34401,7.544 -3.68002,4.906736 -5.52002,14.106726 -5.51999,27.599996 -3e-5,13.3707 1.7173,22.69336 5.15199,27.968 3.55731,5.27468 10.85597,7.91201 21.89601,7.912 l 21.71199,-1.656 0.55201,11.408 c -11.40807,1.71734 -19.93339,2.576 -25.57601,2.576 -14.35203,0 -24.28802,-3.67999 -29.80799,-11.04 -5.39735,-7.35998 -8.09601,-19.7493 -8.096,-37.168 -10e-6,-17.54127 2.94398,-29.80792 8.83199,-36.799996 5.88798,-7.114577 15.7013,-10.671907 29.44,-10.672"
       id="path3896"
       style="font-variant:normal;font-stretch:normal;letter-spacing:-10px;fill:#ffffff;font-family:Titillium Web;-inkscape-font-specification:Titillium Web" />
    <path
       d="m 661.16737,159.57632 5.336,-0.552 0.368,10.856 c -13.98406,1.96267 -25.94405,2.944 -35.88,2.944 -13.24803,0 -22.63202,-3.80266 -28.15199,-11.408 -5.52002,-7.72798 -8.28001,-19.68797 -8.28,-35.88 -1e-5,-32.261252 12.81864,-48.391903 38.45599,-48.391996 12.38928,9.3e-5 21.6506,3.49609 27.78401,10.488 6.13325,6.869409 9.19991,17.725396 9.19999,32.567996 l -0.736,10.488 -60.72,0 c -2e-5,10.18137 1.83998,17.72536 5.52,22.632 3.67997,4.90668 10.05863,7.36001 19.13601,7.36 9.19994,1e-5 18.5226,-0.36799 27.96799,-1.104 m -4.96799,-39.928 c -8e-5,-11.28527 -1.84007,-19.25859 -5.52001,-23.919996 -3.55739,-4.661254 -9.44538,-6.991918 -17.664,-6.992 -8.09603,8.2e-5 -14.22936,2.453413 -18.4,7.36 -4.04802,4.906736 -6.13335,12.757396 -6.256,23.551996 l 47.84001,0"
       id="path3898"
       style="font-variant:normal;font-stretch:normal;letter-spacing:-10px;fill:#ffffff;font-family:Titillium Web;-inkscape-font-specification:Titillium Web" />
    <path
       d="m 681.6855,170.98432 0,-91.999996 13.616,0 0,12.512 c 10.67196,-7.359914 21.89595,-12.205242 33.672,-14.536 l 0,13.984 c -5.15206,0.981412 -10.54938,2.514744 -16.192,4.6 -5.52004,2.085406 -9.75203,3.925404 -12.696,5.519996 l -4.6,2.392 0,67.528 -13.8,0"
       id="path3900"
       style="font-variant:normal;font-stretch:normal;letter-spacing:-10px;fill:#ffffff;font-family:Titillium Web;-inkscape-font-specification:Titillium Web" />
    <path
       d="m 764.18287,89.472324 c -13.37069,8.1e-5 -20.05602,4.66141 -20.05599,13.983996 -3e-5,4.2934 1.5333,7.36006 4.59999,9.2 3.06664,1.71739 10.05863,3.55739 20.976,5.52 10.91728,1.84005 18.64527,4.47739 23.18401,7.912 4.53859,3.43471 6.80792,9.87471 6.808,19.32 -8e-5,9.44535 -3.06675,16.37601 -9.20001,20.792 -6.01072,4.416 -14.84272,6.624 -26.496,6.624 -7.60536,0 -16.56002,-0.85866 -26.864,-2.576 l -5.52,-0.92 0.736,-11.96 c 13.98398,2.08535 24.5333,3.12801 31.648,3.128 7.11462,1e-5 12.51195,-1.10398 16.192,-3.312 3.80261,-2.33065 5.70394,-6.13331 5.704,-11.408 -6e-5,-5.3973 -1.59472,-9.01596 -4.784,-10.856 -3.18938,-1.96263 -10.18138,-3.80262 -20.976,-5.52 -10.79469,-1.71729 -18.46135,-4.23195 -23,-7.544 -4.53867,-3.31194 -6.808,-9.44527 -6.808,-18.4 0,-8.954587 3.12799,-15.57858 9.384,-19.871996 6.37865,-4.293242 14.29064,-6.439907 23.736,-6.44 7.48262,9.3e-5 16.86661,0.858759 28.15201,2.576 l 5.15199,0.92 -0.36799,11.776 c -13.61607,-1.962587 -24.34939,-2.943919 -32.20001,-2.944"
       id="path3902"
       style="font-variant:normal;font-stretch:normal;letter-spacing:-10px;fill:#ffffff;font-family:Titillium Web;-inkscape-font-specification:Titillium Web" />
  </g>
  <g
     transform="matrix(1.0414205,0,0,1.0414205,-432.29365,-23.431966)"
     id="g3308">
    <g
       id="g3806">
      <path
         d="m 488.8,83.1 c 10.2,0 19.4,4.1 26.1,10.8 l 8.2,-8.2 c -8.8,-8.8 -20.9,-14.2 -34.2,-14.2 -26.7,0 -48.5,21.7 -48.5,48.5 0,26.8 21.7,48.5 48.5,48.5 13.4,0 25.6,-5.5 34.4,-14.3 l -8.2,-8.2 c -6.7,6.8 -16,11 -26.3,11 -20.4,0 -36.9,-16.5 -36.9,-36.9 0,-20.4 16.5,-37 36.9,-37 z"
         id="path5"
         style="fill:#ffffff;fill-opacity:0.7" />
      <path
         d="m 488.8,182.1 c -34.3,0 -62.3,-28 -62.3,-62.3 0,-34.3 28,-62.3 62.3,-62.3 17.2,0 32.8,7 44.1,18.3 l 8.2,-8.2 C 527.7,54.3 509.3,46 488.9,46 c -40.8,0 -73.8,33 -73.8,73.8 0,40.8 33,73.8 73.8,73.8 20.5,0 39,-8.3 52.4,-21.7 l -8.3,-8.3 c -11.4,11.5 -27,18.5 -44.2,18.5 l 0,0 z"
         id="path7"
         style="fill:#ffffff;fill-opacity:0.7" />
      <path
         d="m 488.8,59.1 c -33.5,0 -60.8,27.3 -60.8,60.8 0,33.5 27.3,60.8 60.8,60.8 16.8,0 32,-6.9 43.1,-17.9 l -7.5,-7.5 c -9,9.1 -21.6,14.7 -35.4,14.7 -27.5,0 -50,-22.4 -50,-50 0,-27.6 22.4,-50 50,-50 13.7,0 26.2,5.6 35.3,14.6 L 531.9,77 C 520.8,65.9 505.6,59.1 488.8,59.1 z"
         id="path9"
         style="fill:#ffffff;fill-opacity:0.7" />
    </g>
    <polygon
       points="523.1,106.7 496.5,106.7 545.1,22.5 518.3,22.5 454.4,133.3 481,133.3 432.4,217.5 459.2,217.5 "
       id="polygon11"
       style="fill:#ffffff" />
  </g>
</svg>
