<svg xmlns="http://www.w3.org/2000/svg" viewBox="0 0 805.70642 203.07691" height="203.07692" width="805.70642">
    <g>
        <g id="logo">
            <g id="logo-rings">
                <path d="m 76.923076,63.07692 c 10.615384,0 20.230769,4.307693 27.192304,11.23077 l 8.53846,-8.538462 C 103.5,56.653844 90.923075,50.999998 76.999999,50.999998 c -27.846154,0 -50.5,22.653845 -50.5,50.500002 0,27.84615 22.653846,50.5 50.5,50.5 13.961538,0 26.653841,-5.69231 35.807691,-14.92308 l -8.53846,-8.53846 C 97.269229,135.65384 87.615383,140 76.923076,140 55.692307,140 38.461538,122.76923 38.461538,101.53846 c 0,-21.23077 17.230769,-38.46154 38.461538,-38.46154 z" style="fill:#ffffff;fill-opacity:0.7" />
                <path d="m 76.884614,166.26923 c -35.76923,0 -64.884615,-29.11539 -64.884615,-64.88462 0,-35.769228 29.115385,-64.846151 64.884615,-64.846151 17.923077,0 34.153846,7.307693 45.923076,19.076923 l 8.5,-8.5 C 117.38461,33.230767 98.153845,24.615383 76.923076,24.615383 34.423076,24.615383 -4.56e-7,59.038459 -4.56e-7,101.53846 -4.56e-7,144.03846 34.423076,178.46153 76.923076,178.46153 c 21.307692,0 40.615384,-8.65384 54.538464,-22.65384 l -8.61539,-8.61539 c -11.76923,11.76923 -28.038459,19.07693 -45.961536,19.07693 z" style="fill:#ffffff;fill-opacity:0.7" />
                <path d="m 76.884614,38.076921 c -34.923076,0 -63.346153,28.423076 -63.346153,63.346149 0,34.92308 28.423077,63.34616 63.346153,63.34616 17.5,0 33.384616,-7.15385 44.846156,-18.65385 l -7.84616,-7.84615 c -9.42307,9.5 -22.499996,15.34615 -36.884611,15.34615 -28.692308,0 -52.038461,-23.34615 -52.038461,-52.03846 0,-28.692307 23.346153,-52.038461 52.038461,-52.038461 14.307692,0 27.307691,5.807692 36.730771,15.192308 l 7.96154,-7.961539 C 110.23077,45.192305 94.384614,38.076921 76.884614,38.076921 Z" style="fill:#ffffff;fill-opacity:0.7" />
            </g>
            <polygon transform="scale(0.38461538,0.38461538)" style="fill:#ffffff" points="47.4,528 119.8,528 293,228 220.8,228 352.4,0 280,0 106.8,300 179,300 " id="logo-bolt" />
        </g>
        <path d="m 237.72351,57.355898 q -8.30783,0 -13.217,4.720358 -4.72036,4.531544 -4.72036,10.95123 0,6.419687 3.02103,9.440716 3.02103,2.832214 16.61566,8.874272 13.59463,6.042059 18.5038,12.839376 5.09799,6.6085 5.09799,19.44787 0,21.33602 -13.217,32.85369 -13.02819,11.51768 -35.30828,11.51768 -8.87427,0 -18.69262,-1.88815 -9.81834,-1.88814 -15.29396,-3.77628 l -5.2868,-2.07696 4.34273,-18.69262 q 21.33602,3.77629 33.42014,3.77629 12.27293,0 17.93736,-4.15392 5.66442,-4.34273 5.66442,-14.5387 0,-5.47561 -3.39865,-8.30783 -3.20985,-3.02103 -16.04922,-8.87427 -12.83937,-5.85324 -18.31499,-12.839375 -5.47561,-6.986129 -5.47561,-19.447874 0,-18.314988 11.8953,-30.21029 11.8953,-11.895302 31.7208,-11.895302 9.06309,0 18.88143,1.888144 10.00716,1.699328 15.29396,3.398657 l 5.2868,1.888143 -4.72035,18.503803 q -20.76958,-3.398658 -33.98658,-3.398658 z" style="fill:#ffffff;" />
        <path d="m 307.89458,168.00109 q -38.70694,0 -38.70694,-37.19642 0,-27.56689 9.2519,-50.791054 5.09799,-12.839373 12.46175,-22.657718 7.36376,-10.007158 18.69262,-16.049216 11.51767,-6.230873 25.67874,-6.230873 13.78345,0 27.75571,4.153915 l 4.53154,1.510515 -6.04206,19.25906 q -11.70649,-2.265772 -27.18926,-2.265772 -11.70649,0 -20.76957,10.384787 -8.87428,10.384787 -13.21701,26.434004 -4.34272,16.049222 -4.34272,34.364202 0,16.42685 15.29395,16.42685 14.53871,0 26.24519,-1.88814 l 4.34273,-0.56645 -2.07695,20.20313 q -17.55974,4.90918 -31.90962,4.90918 z" style="fill:#ffffff;" />
        <path d="m 419.98242,35.075809 q 17.1821,0 25.48993,7.363759 8.49665,7.363758 8.49665,26.056375 0,18.503802 -10.19598,30.587919 -10.00715,12.084118 -23.41297,15.860398 l 14.34989,50.79105 -14.53871,0 -13.40581,-48.9029 -30.96555,0 -11.51767,48.9029 -14.34989,0 30.21029,-130.659501 39.83982,0 z m 18.88143,31.909619 q 0,-10.573601 -4.72036,-14.91633 -4.72035,-4.34273 -15.67158,-4.34273 l -26.81164,0 -13.02818,56.455482 27.7557,0 q 14.72752,0 23.60179,-10.38479 8.87427,-10.384787 8.87427,-26.811632 z" style="fill:#ffffff;" />
        <path d="m 473.05695,167.62346 q -24.16823,0 -24.16823,-28.13333 0,-15.67159 4.90917,-31.15437 5.09799,-15.671585 16.42684,-27.189258 11.32886,-11.706488 26.24519,-11.706488 11.51768,0 31.53199,3.398658 l 7.17495,1.3217 -14.34989,61.364648 q -2.6434,10.57361 -4.53154,24.92349 l -0.75526,4.90918 -13.78345,0.56644 q 2.6434,-16.23803 3.39866,-20.20313 -0.94407,1.69933 -5.66443,6.6085 -4.53154,4.72036 -8.11901,7.74139 -3.58748,2.83221 -8.68546,5.2868 -5.09799,2.26577 -9.62953,2.26577 z m 45.69306,-83.267115 q -13.217,-2.6434 -22.84653,-2.6434 -9.44072,0 -17.37092,9.818344 -7.9302,9.629531 -11.51767,22.657721 -3.58747,12.83937 -3.58747,23.03534 0,10.19598 3.20984,14.16108 3.20985,3.9651 9.62953,3.9651 6.41969,0 13.97226,-6.04206 7.74139,-6.23087 12.83937,-12.46175 l 4.90918,-6.23087 10.76241,-46.259505 z" style="fill:#ffffff;" />
        <path d="m 584.92942,69.440014 q 8.87427,0 20.20313,2.643401 l 3.39866,0.944071 -3.58747,10.95123 q -12.27294,-2.265771 -20.39195,-2.265771 -11.32886,0 -19.44787,8.307829 -15.29396,15.293956 -15.29396,46.259506 0,9.44072 4.53154,14.34989 4.53154,4.72036 14.91633,4.72036 7.36376,0 17.37092,-2.07696 l 3.77628,-0.75526 -0.94407,11.14005 q -13.02819,3.9651 -26.24519,3.9651 -13.02819,0 -20.58076,-7.36376 -7.36376,-7.55257 -7.36376,-21.33602 0,-40.406261 21.90246,-59.476507 11.51768,-10.007159 27.75571,-10.007159 z" style="fill:#ffffff;" />
        <path d="m 615.51439,138.16842 q 0,8.11902 4.90917,12.65056 4.90917,4.34273 12.08412,4.34273 13.40581,0 27.56689,-3.02103 l 4.72035,-1.13288 -1.13288,11.14004 q -16.80448,5.47562 -32.28725,5.47562 -30.02147,0 -30.02147,-28.69978 0,-26.24519 11.8953,-46.825948 6.04206,-10.195973 16.04921,-16.426845 10.19598,-6.230873 22.84654,-6.230873 27.94451,0 27.94451,23.035346 0,16.80448 -12.65056,23.60179 -12.65055,6.6085 -40.21744,6.6085 l -9.62953,0 q -2.07696,7.36376 -2.07696,15.48277 z m 14.34989,-26.62281 q 19.25906,0 27.7557,-3.9651 8.49664,-4.15392 8.49664,-14.916335 0,-11.328859 -14.5387,-11.328859 -23.22416,0 -32.09843,30.210294 l 10.38479,0 z" style="fill:#ffffff;" />
        <path d="m 675.44228,165.73531 21.90246,-94.407153 13.97226,0 -3.39866,13.972259 Q 725.47807,72.649858 742.09373,69.2512 l -3.77629,14.538702 q -10.19597,2.6434 -27.37807,11.328859 l -5.66443,2.832215 -15.67159,67.784334 -14.16107,0 z" style="fill:#ffffff;" />
        <path d="m 802.87423,84.356345 q -17.93736,-2.6434 -28.88859,-2.6434 -10.76241,0 -16.61566,5.475615 -5.85324,5.2868 -5.85324,12.83937 0,4.53155 3.39866,6.79732 3.39866,2.26577 15.67159,5.47561 12.46174,3.20985 18.31498,7.36376 5.85325,3.9651 5.85325,13.59463 0,16.61566 -11.51768,25.48993 -11.51767,8.87428 -29.64384,8.87428 -12.08412,0 -25.48993,-3.39866 l -4.34273,-0.94407 2.6434,-10.95123 q 17.37091,3.02103 28.69977,3.02103 11.51767,0 18.31499,-4.90917 6.79732,-4.90918 6.79732,-14.34989 0,-5.2868 -3.58748,-7.36376 -3.58747,-2.26577 -15.67158,-5.09799 -11.89531,-3.02103 -17.74855,-7.17494 -5.85324,-4.15392 -5.85324,-13.02819 0,-15.105145 10.5736,-24.54586 10.5736,-9.440716 26.62282,-9.440716 14.16107,0 26.81163,3.021029 l 4.34273,0.944072 -2.83222,10.95123 z" style="fill:#ffffff;" />
    </g>
</svg>